<svg width="1296" height="293" viewBox="0 0 1296 293" fill="none" xmlns="http://www.w3.org/2000/svg">
<g clip-path="url(#clip0_1316_45592)">
<path fill-rule="evenodd" clip-rule="evenodd" d="M1295.9 60.7008L1292.4 77.9008C1292 79.5008 1290.9 81.4008 1288.6 81.4008H1235.3C1233.3 81.4008 1231.3 80.0008 1231.3 77.7008V76.3008C1231.3 70.1008 1233.8 64.7008 1237.4 59.8008C1241 54.9008 1245.8 50.4008 1250.5 46.1008C1251 45.6008 1251.5 45.2008 1252 44.7008C1256.2 40.9008 1260.2 37.3008 1263.3 33.6008C1266.8 29.4008 1268.9 25.3008 1268.9 21.0008C1268.9 13.6008 1265.1 9.90078 1261.7 9.90078C1260.1 9.90078 1258.9 10.9008 1257.8 12.7008C1256.9 14.2008 1256.2 16.1008 1255.4 18.2008C1255.2 18.7008 1255 19.3008 1254.8 19.9008C1253.8 22.5008 1252.5 25.3008 1250.7 27.5008C1248.8 29.7008 1246.2 31.2008 1242.5 31.2008C1239.6 31.2008 1236.9 30.3008 1234.9 28.5008C1232.9 26.7008 1231.7 24.1008 1231.7 20.9008C1231.7 15.0008 1235.2 9.90078 1240.7 6.20078C1246.2 2.50078 1253.7 0.300781 1262 0.300781C1270.6 0.300781 1278.2 1.90078 1283.6 5.50078C1289.1 9.20078 1292.3 15.0008 1292.3 23.0008C1292.3 34.8008 1283.1 42.2008 1273.6 48.3008C1272 49.3008 1270.4 50.3008 1268.9 51.3008C1265.7 53.3008 1262.7 55.3008 1260 57.3008C1256.5 59.9008 1253.8 62.5008 1252.2 65.5008H1278.8C1280.7 65.5008 1282.1 65.0008 1283.2 64.3008C1284.3 63.6008 1285.2 62.7008 1285.9 61.7008C1286.2 61.2008 1286.5 60.8008 1286.8 60.3008C1286.8 60.2008 1286.9 60.2008 1286.9 60.1008C1287.2 59.6008 1287.6 59.1008 1287.9 58.7008C1288.6 57.8008 1289.5 57.0008 1290.9 57.0008H1292.3C1293.3 57.0008 1294.3 57.4008 1294.9 58.1008C1295.9 58.7008 1296.1 59.7008 1295.9 60.7008Z" fill="#C81E1E"/>
<path d="M1246.4 211.501C1247 223.401 1257.1 224.601 1257.1 231.201V232.401C1257.1 235.101 1254.4 236.901 1250.5 236.901H1206.9C1202.7 236.901 1200.3 235.101 1200.3 232.401V231.201C1200.3 224.601 1211.6 223.401 1211 211.501L1208 153.901C1206.5 119.901 1194.9 104.701 1176.7 104.701C1157.6 104.701 1145.4 120.201 1145.4 141.701V211.801C1145.4 223.401 1157.6 224.601 1157.6 231.201V232.401C1157.6 235.101 1155.2 236.901 1151 236.901H1105C1101.1 236.901 1098.7 235.101 1098.7 232.401V231.201C1098.7 224.601 1110.6 223.401 1110.6 211.801V131.801C1110.6 118.701 1097.2 118.401 1097.2 111.801V110.901C1097.2 108.501 1099.3 107.001 1102.6 105.501L1131.5 91.5009C1137.8 88.2009 1140.7 91.8009 1140.7 96.9009V116.301C1149.1 100.201 1165.5 90.3009 1186 90.3009C1214 90.3009 1239.7 108.201 1242.7 155.001L1246.4 211.501Z" fill="#C81E1E"/>
<path d="M1076.7 104.402C1076.7 109.502 1064.8 112.202 1064.8 125.302V211.802C1064.8 223.402 1076.1 225.202 1076.1 231.502V232.402C1076.1 235.102 1074.3 236.602 1071 236.602H1040C1036.7 236.602 1034.3 234.202 1034.3 230.902V219.002C1024.8 232.402 1008.3 239.602 991.297 239.602C954.897 239.602 921.797 211.302 921.797 164.702C921.797 120.802 952.797 90.4023 991.897 90.4023C1010.1 90.4023 1024.4 97.9023 1034.3 109.202V98.2023C1034.3 93.1023 1038.5 90.1023 1045.3 91.9023L1071.3 97.3023C1074.9 98.2023 1076.7 100.302 1076.7 103.602V104.402ZM999.497 228.202C1014.1 228.202 1031.1 215.702 1031.1 189.702V142.002C1031.1 122.902 1014.1 101.702 993.197 101.702C971.097 101.702 956.497 120.802 955.897 152.402C954.997 193.002 972.297 227.602 999.497 228.202Z" fill="#C81E1E"/>
<path d="M852.097 236.501C848.197 236.501 845.797 234.701 845.797 232.001V231.101C845.797 224.201 856.797 223.301 856.797 211.701V54.5008C856.797 42.0008 845.797 39.6008 845.797 34.2008V33.3008C845.797 30.6008 847.897 29.4008 850.897 27.9008L880.997 13.0008C887.897 9.70084 891.697 13.3008 891.697 17.8008V211.701C891.697 223.301 903.897 224.201 903.897 231.101V232.001C903.897 234.701 901.197 236.501 897.297 236.501H852.097Z" fill="#C81E1E"/>
<path d="M825.298 104.402C825.298 109.502 813.398 112.202 813.398 125.302V211.802C813.398 223.402 824.698 225.202 824.698 231.502V232.402C824.698 235.102 822.898 236.602 819.598 236.602H788.598C785.298 236.602 782.898 234.202 782.898 230.902V219.002C773.398 232.402 756.898 239.602 739.898 239.602C703.498 239.602 670.398 211.302 670.398 164.702C670.398 120.802 701.398 90.4023 740.498 90.4023C758.698 90.4023 772.998 97.9023 782.898 109.202V98.2023C782.898 93.1023 787.098 90.1023 793.898 91.9023L819.898 97.3023C823.498 98.2023 825.298 100.302 825.298 103.602V104.402ZM747.998 228.202C762.598 228.202 779.598 215.702 779.598 189.702V142.002C779.598 122.902 762.598 101.702 741.698 101.702C719.598 101.702 704.998 120.802 704.398 152.402C703.598 193.002 720.898 227.602 747.998 228.202Z" fill="#C81E1E"/>
<path d="M623.698 68.6008C608.798 68.6008 598.898 59.4008 598.898 46.2008C598.898 33.4008 608.698 23.8008 623.698 23.8008C638.298 23.8008 647.898 33.3008 647.898 46.2008C647.798 59.3008 638.298 68.6008 623.698 68.6008ZM601.298 292.901C578.898 292.901 563.398 283.401 563.398 266.301C563.398 257.401 569.698 251.401 578.598 251.401C600.398 251.401 590.498 280.301 607.798 280.301C615.598 280.301 620.598 274.001 620.598 265.401C620.598 248.101 608.398 241.501 608.398 226.301V133.201C608.398 120.701 597.398 118.601 597.398 112.601V111.701C597.398 109.301 599.198 108.101 602.498 106.301L633.498 91.4008C640.098 88.1008 644.198 91.7008 644.198 96.5008V236.401C644.198 252.201 641.798 261.501 636.998 271.301C630.498 284.601 619.798 292.901 601.298 292.901Z" fill="#C81E1E"/>
<path d="M514.298 239.201C475.198 239.201 451.898 221.301 451.898 204.901C451.898 195.701 458.198 191.201 466.798 191.201C489.198 191.201 479.298 229.101 514.198 229.101C529.998 229.101 541.598 221.301 541.598 206.101C541.598 165.801 454.798 192.401 454.798 132.701C454.798 108.501 478.998 90.3008 513.298 90.3008C550.598 90.3008 572.998 108.501 572.998 125.801C572.998 133.301 566.998 138.601 559.298 138.601C538.398 138.601 546.498 101.001 515.098 101.001C500.498 101.001 489.998 111.101 489.998 124.001C489.998 164.601 576.798 138.601 576.798 197.701C576.898 221.001 552.798 239.201 514.298 239.201Z" fill="#4B2814"/>
<path d="M439.802 99.6016C434.702 102.602 428.502 96.3016 432.902 91.8016C443.902 81.1016 448.102 74.5016 449.602 65.5016C450.202 62.5016 449.602 60.4016 446.602 60.4016C437.102 60.4016 429.602 51.7016 429.602 39.2016C429.602 25.5016 438.302 15.6016 451.702 15.6016C464.202 15.6016 475.002 25.4016 475.002 42.5016C475.002 64.1016 463.402 84.1016 439.802 99.6016Z" fill="#4B2814"/>
<path d="M372.9 239.501C347.8 239.501 331.1 223.401 331.1 191.201V108.001H314.1C311.1 108.001 309 105.901 309 102.901V98.7008C309 95.4008 310.8 93.3008 314.1 93.3008H323.3C338.8 93.3008 348.1 81.7008 350.4 64.4008C351 60.2008 353.4 57.8008 356.4 57.8008H360.9C364.8 57.8008 366.6 60.2008 366.6 64.4008L366.9 93.3008H404.5C407.5 93.3008 409.9 95.7008 409.9 98.7008V102.901C409.9 105.901 407.5 108.001 404.5 108.001H367V191.501C367 205.801 374.2 213.601 384 213.601C396.5 213.601 403.4 206.701 405.2 198.101C407.9 193.301 415 194.201 415 199.601C415 219.501 399.8 239.501 372.9 239.501Z" fill="#4B2814"/>
<path d="M290.602 192.699C293.902 188.499 300.702 189.699 300.102 195.699C297.402 213.299 279.202 239.599 241.902 239.599C198.002 239.599 167.602 209.199 167.602 163.799C167.602 120.199 198.902 90.6992 239.802 90.3992C271.102 90.0992 294.702 104.399 294.702 130.999C294.702 153.099 274.402 168.599 246.702 174.599C230.602 178.199 216.002 177.299 203.402 176.099C210.902 199.399 227.902 214.599 251.102 214.599C271.202 214.399 284.602 204.599 290.602 192.699ZM234.802 102.299C213.602 102.299 199.602 122.599 199.602 148.499C199.602 153.599 199.902 158.299 200.502 162.799C212.402 163.699 228.202 163.399 240.202 160.999C252.402 158.299 261.702 151.499 261.402 130.899C261.002 115.399 250.602 102.299 234.802 102.299Z" fill="#4B2814"/>
<path d="M6.3 236.499C2.4 236.499 0 234.699 0 232.299V231.399C0 224.799 11 223.299 11 211.699V49.4992C11 37.4992 0 36.5992 0 29.7992V28.8992C0 26.1992 2.4 24.6992 6.3 24.6992H53.1C57 24.6992 59.7 26.1992 59.7 28.8992V29.7992C59.7 36.6992 47.5 37.5992 47.5 49.4992V207.299C47.5 215.099 51.1 221.299 58.5 221.299H113.1C133.1 221.299 137 185.499 148.6 185.499H151.6C154.9 185.499 156.7 187.599 155.8 191.499L148.3 228.799C147.1 233.899 145 236.599 139.6 236.599H6.3V236.499Z" fill="#4B2814"/>
</g>
<defs>
<clipPath id="clip0_1316_45592">
<rect width="1296" height="292.9" fill="white"/>
</clipPath>
</defs>
</svg>
